<mxfile host="app.diagrams.net" agent="Mozilla/5.0 (Windows NT 10.0; Win64; x64) AppleWebKit/537.36 (KHTML, like Gecko) Chrome/131.0.0.0 Safari/537.36 Edg/131.0.0.0" version="25.0.3">
  <diagram id="C5RBs43oDa-KdzZeNtuy" name="Page-1">
    <mxGraphModel dx="704" dy="-1393" grid="1" gridSize="10" guides="1" tooltips="1" connect="1" arrows="1" fold="1" page="1" pageScale="1" pageWidth="827" pageHeight="1169" math="0" shadow="0">
      <root>
        <mxCell id="WIyWlLk6GJQsqaUBKTNV-0" />
        <mxCell id="WIyWlLk6GJQsqaUBKTNV-1" parent="WIyWlLk6GJQsqaUBKTNV-0" />
        <mxCell id="P8zv2YnQJk2JS5Da25vR-2" value="" style="edgeStyle=none;curved=1;rounded=0;orthogonalLoop=1;jettySize=auto;html=1;fontSize=12;startSize=8;endSize=8;" edge="1" parent="WIyWlLk6GJQsqaUBKTNV-1" source="P8zv2YnQJk2JS5Da25vR-0" target="P8zv2YnQJk2JS5Da25vR-1">
          <mxGeometry relative="1" as="geometry" />
        </mxCell>
        <mxCell id="P8zv2YnQJk2JS5Da25vR-0" value="&lt;font style=&quot;font-size: 26px;&quot;&gt;А&lt;/font&gt;" style="ellipse;whiteSpace=wrap;html=1;aspect=fixed;" vertex="1" parent="WIyWlLk6GJQsqaUBKTNV-1">
          <mxGeometry x="220" y="2680" width="80" height="80" as="geometry" />
        </mxCell>
        <mxCell id="P8zv2YnQJk2JS5Da25vR-5" value="" style="edgeStyle=none;curved=1;rounded=0;orthogonalLoop=1;jettySize=auto;html=1;fontSize=12;startSize=8;endSize=8;" edge="1" parent="WIyWlLk6GJQsqaUBKTNV-1" source="P8zv2YnQJk2JS5Da25vR-1" target="P8zv2YnQJk2JS5Da25vR-3">
          <mxGeometry relative="1" as="geometry" />
        </mxCell>
        <mxCell id="P8zv2YnQJk2JS5Da25vR-1" value="Цикл 4&lt;div&gt;i &amp;gt; n1&lt;/div&gt;" style="strokeWidth=2;html=1;shape=mxgraph.flowchart.loop_limit;whiteSpace=wrap;" vertex="1" parent="WIyWlLk6GJQsqaUBKTNV-1">
          <mxGeometry x="160" y="2800" width="200" height="80" as="geometry" />
        </mxCell>
        <mxCell id="P8zv2YnQJk2JS5Da25vR-6" value="" style="edgeStyle=none;curved=1;rounded=0;orthogonalLoop=1;jettySize=auto;html=1;fontSize=12;startSize=8;endSize=8;" edge="1" parent="WIyWlLk6GJQsqaUBKTNV-1" source="P8zv2YnQJk2JS5Da25vR-3" target="P8zv2YnQJk2JS5Da25vR-4">
          <mxGeometry relative="1" as="geometry" />
        </mxCell>
        <mxCell id="P8zv2YnQJk2JS5Da25vR-3" value="&lt;div&gt;data[k] := L[i]&lt;/div&gt;&lt;div&gt;&lt;span style=&quot;background-color: initial;&quot;&gt;Inc(i)&lt;/span&gt;&lt;/div&gt;&lt;div&gt;&lt;span style=&quot;background-color: initial;&quot;&gt;Inc(k)&lt;/span&gt;&lt;/div&gt;" style="rounded=0;whiteSpace=wrap;html=1;" vertex="1" parent="WIyWlLk6GJQsqaUBKTNV-1">
          <mxGeometry x="160" y="2922.5" width="200" height="77.5" as="geometry" />
        </mxCell>
        <mxCell id="P8zv2YnQJk2JS5Da25vR-12" value="" style="edgeStyle=none;curved=1;rounded=0;orthogonalLoop=1;jettySize=auto;html=1;fontSize=12;startSize=8;endSize=8;" edge="1" parent="WIyWlLk6GJQsqaUBKTNV-1" source="P8zv2YnQJk2JS5Da25vR-4" target="P8zv2YnQJk2JS5Da25vR-8">
          <mxGeometry relative="1" as="geometry" />
        </mxCell>
        <mxCell id="P8zv2YnQJk2JS5Da25vR-4" value="Цикл 4" style="strokeWidth=2;html=1;shape=mxgraph.flowchart.loop_limit;whiteSpace=wrap;direction=west;" vertex="1" parent="WIyWlLk6GJQsqaUBKTNV-1">
          <mxGeometry x="160" y="3040" width="200" height="80" as="geometry" />
        </mxCell>
        <mxCell id="P8zv2YnQJk2JS5Da25vR-7" value="" style="edgeStyle=none;curved=1;rounded=0;orthogonalLoop=1;jettySize=auto;html=1;fontSize=12;startSize=8;endSize=8;" edge="1" parent="WIyWlLk6GJQsqaUBKTNV-1" source="P8zv2YnQJk2JS5Da25vR-8" target="P8zv2YnQJk2JS5Da25vR-10">
          <mxGeometry relative="1" as="geometry" />
        </mxCell>
        <mxCell id="P8zv2YnQJk2JS5Da25vR-8" value="Цикл 5&lt;div&gt;j &amp;gt; n2&lt;/div&gt;" style="strokeWidth=2;html=1;shape=mxgraph.flowchart.loop_limit;whiteSpace=wrap;" vertex="1" parent="WIyWlLk6GJQsqaUBKTNV-1">
          <mxGeometry x="160" y="3160" width="200" height="80" as="geometry" />
        </mxCell>
        <mxCell id="P8zv2YnQJk2JS5Da25vR-9" value="" style="edgeStyle=none;curved=1;rounded=0;orthogonalLoop=1;jettySize=auto;html=1;fontSize=12;startSize=8;endSize=8;" edge="1" parent="WIyWlLk6GJQsqaUBKTNV-1" source="P8zv2YnQJk2JS5Da25vR-10" target="P8zv2YnQJk2JS5Da25vR-11">
          <mxGeometry relative="1" as="geometry" />
        </mxCell>
        <mxCell id="P8zv2YnQJk2JS5Da25vR-10" value="&lt;div&gt;data[k] := R[j]&lt;/div&gt;&lt;div&gt;&lt;span style=&quot;background-color: initial;&quot;&gt;Inc(j)&lt;/span&gt;&lt;/div&gt;&lt;div&gt;&lt;span style=&quot;background-color: initial;&quot;&gt;Inc(k)&lt;/span&gt;&lt;/div&gt;" style="rounded=0;whiteSpace=wrap;html=1;" vertex="1" parent="WIyWlLk6GJQsqaUBKTNV-1">
          <mxGeometry x="160" y="3282.5" width="200" height="77.5" as="geometry" />
        </mxCell>
        <mxCell id="P8zv2YnQJk2JS5Da25vR-15" value="" style="edgeStyle=none;curved=1;rounded=0;orthogonalLoop=1;jettySize=auto;html=1;fontSize=12;startSize=8;endSize=8;" edge="1" parent="WIyWlLk6GJQsqaUBKTNV-1" source="P8zv2YnQJk2JS5Da25vR-11" target="P8zv2YnQJk2JS5Da25vR-14">
          <mxGeometry relative="1" as="geometry" />
        </mxCell>
        <mxCell id="P8zv2YnQJk2JS5Da25vR-11" value="Цикл 5" style="strokeWidth=2;html=1;shape=mxgraph.flowchart.loop_limit;whiteSpace=wrap;direction=west;" vertex="1" parent="WIyWlLk6GJQsqaUBKTNV-1">
          <mxGeometry x="160" y="3400" width="200" height="80" as="geometry" />
        </mxCell>
        <mxCell id="P8zv2YnQJk2JS5Da25vR-14" value="Merge&lt;div&gt;Конец&lt;/div&gt;" style="strokeWidth=2;html=1;shape=mxgraph.flowchart.terminator;whiteSpace=wrap;" vertex="1" parent="WIyWlLk6GJQsqaUBKTNV-1">
          <mxGeometry x="160" y="3520" width="200" height="80" as="geometry" />
        </mxCell>
      </root>
    </mxGraphModel>
  </diagram>
</mxfile>
